<svg width="25" height="25" viewBox="0 0 25 25" fill="none" xmlns="http://www.w3.org/2000/svg">
<g clip-path="url(#clip0)">
<path d="M23.2469 5.91024H17.9051V0.82147C17.9051 0.595288 17.7215 0.41172 17.4954 0.41172H7.50402C7.27784 0.41172 7.09427 0.595288 7.09427 0.82147V5.91024H1.75309C1.54002 5.91024 1.36039 6.07676 1.34465 6.28918L0.00132894 24.1484C-0.00719386 24.2618 0.0321421 24.3746 0.108847 24.4565C0.185553 24.5404 0.295038 24.5883 0.409768 24.5883H24.5909C24.7057 24.5883 24.8151 24.5404 24.8912 24.4572C24.9685 24.3746 25.0079 24.2618 24.9994 24.1477L23.656 6.28918C23.6403 6.07676 23.4607 5.91024 23.2469 5.91024ZM17.4954 8.50707C17.7025 8.50707 17.871 8.6749 17.871 8.88076C17.871 9.08728 17.7025 9.25576 17.4954 9.25576C17.2882 9.25576 17.1197 9.08728 17.1197 8.88076C17.1197 8.6749 17.2882 8.50707 17.4954 8.50707ZM7.91377 1.23188H17.0856V5.91089H7.91377V1.23188ZM7.50402 8.50707C7.71119 8.50707 7.87968 8.6749 7.87968 8.88076C7.87968 9.08728 7.71119 9.25576 7.50402 9.25576C7.29685 9.25576 7.12836 9.08728 7.12836 8.88076C7.12836 8.6749 7.29685 8.50707 7.50402 8.50707ZM0.850987 23.7694L2.13269 6.73039H7.09427V7.76493C6.63731 7.93276 6.30886 8.36808 6.30886 8.88142C6.30886 9.5403 6.84514 10.0759 7.50402 10.0759C8.1629 10.0759 8.69918 9.5403 8.69918 8.88142C8.69918 8.36808 8.37072 7.93276 7.91377 7.76493V6.73039H17.0856V7.76493C16.6287 7.93276 16.3002 8.36808 16.3002 8.88142C16.3002 9.5403 16.8365 10.0759 17.4954 10.0759C18.1542 10.0759 18.6905 9.5403 18.6905 8.88142C18.6905 8.36808 18.3621 7.93276 17.9051 7.76493V6.73039H22.8674L24.149 23.7694H0.850987Z" fill="#050409"/>
</g>
<defs>
<clipPath id="clip0">
<rect width="25" height="25" fill="white"/>
</clipPath>
</defs>
</svg>
