<svg width="90" height="101" viewBox="0 0 90 101" fill="none" xmlns="http://www.w3.org/2000/svg">
<path d="M30.4712 3.42445C30.6411 3.13521 30.8094 2.77769 31.1643 2.68701C31.5297 2.86264 31.5739 3.31501 31.7376 3.64333C32.8221 3.41872 33.9477 3.45676 35.0301 3.6746C36.2048 3.90391 37.3314 4.32344 38.4295 4.79092C40.0257 5.48354 41.6042 6.31791 42.8362 7.57025C43.1562 7.87825 43.447 8.21857 43.805 8.48436C44.0051 8.64175 44.187 8.83041 44.287 9.06858C44.3011 8.65269 44.2839 8.23525 44.3199 7.82041C44.3412 7.60673 44.3824 7.37899 44.5247 7.20961C44.7441 6.95841 45.1975 6.97978 45.3944 7.24922C45.5894 7.50406 45.6441 7.84646 45.8859 8.06952C46.0563 8.21805 45.8786 8.45518 45.901 8.64175C46.5628 8.4286 47.0944 7.9533 47.6916 7.62028C47.8844 7.66406 48.0689 7.83656 48.084 8.03981C47.6484 8.52762 47.0199 8.76839 46.4659 9.09047C46.5795 9.31769 46.6634 9.56628 46.5993 9.82217C46.7385 9.89253 46.9031 9.90243 47.036 9.98477C47.1486 10.1844 47.2507 10.422 47.1866 10.6545C47.1746 10.6654 47.1512 10.6873 47.1392 10.6977C46.5211 10.7931 45.8551 10.7274 45.3173 10.3881C45.6733 11.1673 46.0235 11.9506 46.2965 12.7636C46.9016 14.5199 47.0058 16.4096 46.8807 18.2508C46.7551 19.844 46.4305 21.4346 45.7999 22.9079C45.5919 23.3874 45.3439 23.8512 45.0489 24.2838C45.0995 24.5084 45.2303 24.7017 45.3017 24.9185C45.3595 25.1963 45.1485 25.4829 44.878 25.5455C44.435 25.6633 43.9436 25.411 43.7638 24.993C43.632 25.0811 43.4642 25.1515 43.3083 25.0816C43.0353 24.9628 42.8951 24.6731 42.806 24.4057C42.4693 24.512 42.0748 24.585 41.7574 24.3869C41.4766 24.216 41.402 23.8642 41.3932 23.5593C41.2363 23.649 41.0815 23.8262 40.8819 23.7537C40.6646 23.5989 40.5786 23.3248 40.5614 23.0695C40.2613 22.9678 40.1419 22.6536 40.0664 22.3737C40.009 22.16 39.9345 21.9516 39.861 21.7431C39.7969 21.5659 39.983 21.4612 40.0466 21.3205C39.8266 21.2006 39.5244 21.1511 39.4233 20.8905C39.3868 20.6424 39.4566 20.3959 39.5426 20.165C39.3503 19.9879 39.096 19.8289 39.0413 19.5543C39.0512 19.3474 39.2649 19.2374 39.3613 19.0701C39.2456 19.0988 39.146 19.1644 39.0392 19.2124C38.9178 19.2103 38.8099 19.1431 38.6953 19.1113C38.3784 18.9951 38.0225 18.9263 37.7708 18.685C37.6384 18.5609 37.604 18.3744 37.6149 18.2008C37.3638 18.2607 37.0584 18.2065 36.9083 17.9783C36.8332 17.8808 36.8348 17.7537 36.8364 17.6369C36.1823 17.9731 35.3652 17.2059 35.5679 16.5237C35.2943 16.4883 34.9811 16.4112 34.8566 16.1344C34.5757 16.2053 34.3995 16.4664 34.1176 16.5347C34.4261 17.184 34.9066 17.7297 35.2506 18.3572C35.2568 18.5151 35.1922 18.7058 35.0728 18.8179C34.9681 18.8095 34.868 18.7746 34.7669 18.7506C34.8456 19.0691 34.7487 19.3849 34.6184 19.6741C34.3797 19.7153 34.1338 19.6439 33.9013 19.7257C33.7377 19.6121 33.6554 19.4234 33.5079 19.2952C33.4057 19.2869 33.4417 19.4094 33.4469 19.4735C33.5256 19.6793 33.7262 19.8008 33.8617 19.9665C33.8263 20.323 33.5751 20.5893 33.4026 20.8848C33.19 20.9364 33.0279 20.7936 32.8653 20.6846C32.895 20.8035 33.0446 20.8702 33.0295 20.9994C32.6657 21.2704 32.1706 20.8801 31.8189 21.1834C31.798 21.3194 31.8095 21.4575 31.809 21.5946C31.6047 21.8056 31.2842 21.8765 31.0085 21.7765C30.5911 21.6556 30.305 21.236 30.3222 20.8045C30.1695 20.7117 30.0053 20.6362 29.8266 20.6138C29.8594 20.4856 29.8599 20.3527 29.8245 20.2245C29.4649 20.399 29.3539 21.0578 29.7849 21.2136C29.8381 21.1083 29.813 20.9926 29.8104 20.8816C29.8047 20.804 29.8912 20.7863 29.9522 20.7962C29.9511 21.0458 29.9022 21.3304 30.0793 21.5367C30.1466 21.4205 30.1559 21.2449 30.3185 21.2188C30.2998 21.3048 30.2868 21.3913 30.28 21.4789C30.3331 21.5972 30.4113 21.7019 30.4712 21.8171C30.8631 21.7744 31.1206 22.1981 31.5177 22.1538C31.5677 21.7952 31.9497 21.6139 32.0055 21.2553C32.328 21.5237 32.5532 21.8817 32.7778 22.2309C32.7522 22.3372 32.7262 22.4571 32.6303 22.5238C32.4385 22.6635 32.1863 22.6546 31.9768 22.7547C32.019 22.9876 32.2441 23.1601 32.2056 23.4103C32.204 23.612 31.9653 23.6573 31.8345 23.7589C31.7084 23.8215 31.6855 23.9658 31.6646 24.0904C31.5651 24.0805 31.4666 24.0685 31.3681 24.0534C31.4974 24.178 31.6428 24.2879 31.7553 24.4292C31.8747 24.5803 31.8361 24.8007 31.7204 24.942C31.5046 25.0613 31.2092 24.8565 31.021 25.0535C31.3249 25.0832 31.3822 25.422 31.4286 25.6643C31.2946 25.6914 31.1623 25.7472 31.0247 25.7138C31.0137 25.8003 31.0018 25.8874 30.9872 25.9739C30.9491 25.9832 30.8725 26.0025 30.834 26.0119C30.9403 26.1839 31.1675 26.2746 31.1805 26.4981C31.0539 26.5206 30.9043 26.545 30.8418 26.6743C30.7271 26.8937 30.7193 27.1527 30.5937 27.369C30.6625 27.3231 30.7183 27.2444 30.8053 27.2345C30.9783 27.2981 30.9158 27.5306 30.8074 27.627C30.6714 27.7276 30.4931 27.7328 30.3311 27.7343C30.2446 27.7484 30.2065 27.652 30.1685 27.5947C29.9981 27.2684 30.0465 26.889 30.0241 26.5346C29.9824 25.2369 29.5744 23.9929 29.3623 22.7203C29.0506 22.9178 29.0725 23.3222 28.9943 23.6396C28.7911 23.7365 28.53 23.7152 28.3763 23.5406C28.2304 23.4072 28.221 23.1956 28.2752 23.0173C28.1824 22.9574 28.0761 22.9293 27.9688 22.9131C27.8812 22.6067 27.5795 22.4686 27.3517 22.2841C27.1813 22.1527 27.1193 21.9333 27.1203 21.727C26.8056 21.5951 26.718 21.1391 26.9822 20.9145C26.6232 20.9989 26.3777 21.2928 26.0588 21.4565C26.6946 22.2476 27.3491 23.045 27.7572 23.9836C28.3174 25.2396 28.3502 26.6535 28.2225 28.0017C28.159 28.6213 27.9854 29.2222 27.828 29.8231C27.6931 30.3547 27.6868 30.9123 27.5211 31.4371C27.4382 31.7092 27.2485 31.9364 27.1813 32.2142C27.1214 32.4534 27.1313 32.703 27.0787 32.9433C26.8342 34.0028 26.5638 35.0816 26.6378 36.1776C26.6623 36.3292 26.6326 36.5153 26.7613 36.6279C26.9734 36.8473 27.0307 37.1709 27.2543 37.382C27.4831 37.5977 27.7817 37.7166 28.074 37.8203C28.8516 38.0824 29.6656 38.2169 30.4457 38.4733C31.2561 38.7427 32.1086 38.8272 32.9445 38.9819C34.237 39.2165 35.5367 39.4432 36.7947 39.8288C37.7593 40.314 38.6989 40.8513 39.6177 41.4183C40.193 41.4496 40.7939 41.335 41.3479 41.5439C41.4437 41.9478 41.1462 42.2522 40.9612 42.5706C40.8783 42.5722 40.7934 42.5602 40.7131 42.5826C40.538 42.6608 40.5151 42.8739 40.4525 43.0334C41.0148 43.331 41.6517 43.43 42.2406 43.6593C43.0061 43.9428 43.7435 44.3347 44.3433 44.895C45.111 45.6012 45.6008 46.6033 45.678 47.6441C45.7077 48.3466 45.5649 49.0423 45.5659 49.7443C46.0923 49.7454 46.4815 50.1456 46.9605 50.2952C47.2815 50.4015 47.6369 50.2681 47.9501 50.401C48.2591 50.5891 48.5406 50.82 48.8256 51.0425C49.1935 51.3193 49.3759 51.7696 49.4734 52.2063C49.5917 52.7994 49.5708 53.442 49.3129 53.997C49.0883 54.417 48.8173 54.8402 48.3873 55.0753C48.6833 55.6188 48.9293 56.2015 49.007 56.8201C49.0659 57.2568 49.0111 57.7045 48.8517 58.1152C48.8235 58.4524 48.8277 58.8114 48.6495 59.1142C48.4676 59.4571 48.1075 59.6521 47.7458 59.7526C48.0418 60.7168 48.639 61.5913 49.4708 62.1698C50.1613 62.6451 50.9341 63.0208 51.7575 63.1949C52.1322 63.297 52.5413 63.3736 52.8363 63.6478C53.0937 63.8787 53.3522 64.1111 53.5836 64.3696C53.9046 64.7344 54.0927 65.2029 54.1443 65.6839C54.2579 65.833 54.3533 66.0029 54.3668 66.1947C54.4018 66.6809 54.1037 67.1192 54.1214 67.6034C54.124 67.7821 54.2168 67.964 54.3804 68.0474C54.654 68.1917 54.9792 68.1865 55.2564 68.3246C55.456 68.4263 55.6207 68.5982 55.7098 68.8051C55.8854 69.2215 55.8062 69.6974 55.9527 70.1185C56.2169 70.3024 56.4925 70.4827 56.6895 70.7433C56.9412 71.0591 57.0502 71.4735 57.021 71.8732C56.9845 72.4548 56.7651 73.001 56.5863 73.5492C56.5692 73.8077 56.7078 74.048 56.8282 74.27C56.7979 74.6087 56.799 74.9918 57.0429 75.2602C57.3555 75.6099 57.8392 75.7058 58.2696 75.834C58.8668 75.983 59.4354 76.2473 59.9253 76.6209C60.2541 76.8789 60.4928 77.2322 60.6846 77.6002C60.8961 78.0228 61.0452 78.4872 61.0514 78.964C61.0587 79.3742 60.9347 79.7969 60.6616 80.1096C60.6053 80.1856 60.5058 80.2596 60.5485 80.368C60.6397 80.4994 60.7924 80.5635 60.9352 80.6239C61.3162 80.7772 61.7211 80.8798 62.0718 81.1013C62.5122 81.3869 63.0145 81.5505 63.4898 81.7663C64.5847 82.2463 65.6927 82.6992 66.8313 83.065C68.0055 83.4554 69.2306 83.7034 70.4683 83.7462C70.8884 83.7629 71.4298 83.914 71.5242 84.3877C71.4288 84.5331 71.2719 84.6228 71.1583 84.752C71.2954 84.9214 71.4533 85.0923 71.4971 85.3149C71.5445 85.4723 71.4872 85.6547 71.3574 85.7573C71.2063 85.8829 71.003 85.9048 70.818 85.9418C73.6327 87.1665 76.4385 88.4434 79.3881 89.3173C80.8176 89.7416 82.2752 90.0767 83.7521 90.2893C84.1111 90.3336 84.5463 90.2257 84.8293 90.515C84.7823 90.6661 84.6813 90.7886 84.5916 90.9157C84.8063 90.9892 85.0919 90.9835 85.2264 91.1972C85.2868 91.3457 85.3118 91.588 85.1341 91.6672C84.8954 91.7996 84.6119 91.7663 84.3503 91.7663C84.2456 91.9106 84.1507 92.0748 83.9923 92.167C83.8417 92.252 83.6656 92.2296 83.5019 92.2223C83.4654 92.659 83.9094 92.9029 84.0163 93.2927C84.0736 93.4611 84.0324 93.6393 83.9788 93.8035C83.8625 93.8076 83.7406 93.7993 83.6358 93.8551C83.3815 93.9859 83.3362 94.3314 83.073 94.4507C82.8437 94.5107 82.5894 94.4179 82.4789 94.2032C82.3966 94.3689 82.3283 94.5409 82.2475 94.7077C82.1209 94.7379 81.9901 94.79 81.8614 94.7452C81.7822 94.9203 81.6555 95.1147 81.4544 95.1533C81.0714 95.1251 80.7592 94.8505 80.5737 94.5305C80.0786 94.7838 79.5981 94.3846 79.1098 94.3246C78.8753 94.335 78.8539 94.6441 78.6507 94.7098C78.4933 94.7468 78.3458 94.6566 78.191 94.6602C78.0211 94.8171 77.8992 95.0631 77.6491 95.1027C77.5089 95.1329 77.4052 95.0183 77.2895 94.9651C77.1733 94.9766 77.1321 95.1163 77.0294 95.1527C76.6558 95.1731 76.2878 94.974 76.0924 94.6576C75.8048 94.7171 75.5577 94.5555 75.343 94.3887C75.2748 94.5998 75.1309 94.7718 74.9522 94.9C74.8537 94.8411 74.7568 94.7676 74.6385 94.7666C74.2867 94.7582 73.9949 95.0344 73.6405 95.0079C73.4555 94.998 73.3195 94.8583 73.2121 94.7238C72.9969 94.8463 72.7238 94.8755 72.5034 94.7509C72.3048 94.6582 72.1844 94.4659 72.1063 94.2704C71.8671 94.3486 71.619 94.2459 71.4528 94.0719C71.2589 93.8837 71.0447 93.6284 70.7425 93.6789C70.6606 93.8003 70.6002 93.9457 70.4689 94.025C70.2661 94.1532 70.0176 94.2277 69.8831 94.4419C70.0519 94.6149 70.2526 94.7775 70.3334 95.0146C70.2458 95.3534 69.9555 95.6223 69.6319 95.739C69.4094 95.8214 69.166 95.7588 68.9826 95.6192C68.8783 95.737 68.7726 95.8537 68.6746 95.9777C68.3275 95.8016 68.155 96.3238 67.8126 96.243C67.5729 96.2284 67.3989 96.0471 67.2597 95.8709C67.0757 96.2555 66.7881 96.6521 66.3545 96.7631C65.9902 96.8465 65.7244 96.5145 65.6046 96.2154C65.4654 96.5255 65.0506 96.527 64.8203 96.3222C64.7134 96.4697 64.628 96.6422 64.4732 96.747C64.2689 96.7329 64.0526 96.699 63.8676 96.8126C63.6707 96.9299 63.458 97.0404 63.2209 97.0195C63.1141 96.7548 63.0536 96.4744 63.0317 96.1909C62.8415 96.2081 62.6544 96.1659 62.4872 96.0773C62.347 95.9939 62.1807 96.0116 62.0286 96.0398C61.9546 95.9585 61.8571 95.9079 61.7607 95.8626C61.6982 95.651 61.6049 95.4446 61.6101 95.22C61.5184 95.3675 61.4782 95.5394 61.3938 95.6911C61.2964 95.8381 61.0837 95.8308 60.9383 95.7708C60.8763 95.6901 60.8539 95.5884 60.8174 95.4967C60.5074 95.5478 60.2124 95.3414 60.1056 95.0569C60.0264 94.8927 60.0623 94.7098 60.079 94.5378C59.979 94.531 59.882 94.5659 59.784 94.5737C59.7622 94.3773 59.7189 94.1683 59.5657 94.0312C59.4208 93.8936 59.2436 93.7993 59.0748 93.6972C59.1118 93.9499 59.1483 94.2089 59.0763 94.4601C58.7616 94.6118 58.3608 94.6139 58.082 94.3851C57.909 94.482 57.7355 94.6608 57.5244 94.5487C57.5135 94.8468 57.5958 95.1376 57.614 95.4342C57.6286 95.6046 57.5359 95.7568 57.4134 95.8673C57.0867 95.8751 56.7589 95.7818 56.4352 95.8589C56.2606 95.6327 56.1611 95.3419 55.9282 95.1668C55.8073 95.2127 55.7265 95.3216 55.6124 95.3795C55.5253 95.4081 55.4336 95.3675 55.3476 95.3628C55.2887 95.5421 55.2403 95.7338 55.1058 95.8756C55.1657 96.0997 55.2825 96.3269 55.2288 96.5656C55.136 96.7767 54.9 96.8997 54.6738 96.8861C54.3038 96.8746 53.9494 96.6855 53.7097 96.4072C53.7014 96.525 53.6915 96.661 53.5893 96.7407C53.4184 96.872 53.2063 96.9382 53.04 97.0784C52.7805 96.9268 52.5809 96.7001 52.3558 96.5057C52.189 96.6683 51.9389 96.8111 51.72 96.649C51.6653 96.9012 51.498 97.1243 51.2562 97.2233C51.0467 97.3531 50.8513 97.1368 50.6605 97.0706C50.599 97.217 50.5584 97.3713 50.5131 97.524C50.0284 97.7518 49.4583 97.5704 49.0862 97.2176C48.9465 97.2937 48.7876 97.3494 48.6276 97.315C48.3405 97.2692 48.0898 97.0946 47.8 97.0643C47.6411 97.0305 47.4879 97.1978 47.3404 97.0873C46.7849 96.8455 46.4826 96.2753 46.3184 95.7219C46.1767 95.6718 46.0151 95.6577 45.8948 95.5629C45.7947 95.2955 46.0105 95.0694 46.0657 94.825C45.8447 94.5519 45.468 94.4706 45.1355 94.5383C44.7806 94.605 44.421 94.6394 44.0609 94.604C43.9275 94.7072 43.8649 94.8698 43.7842 95.0131C43.5825 95.0272 43.4475 95.2643 43.2391 95.1955C43.0978 95.4055 42.9394 95.6416 42.6846 95.7187C42.5616 95.7547 42.4521 95.6791 42.3531 95.6197C42.2312 95.7703 42.0483 95.848 41.8549 95.811C41.6678 96.0377 41.3875 96.2493 41.0784 96.206C40.8622 96.1664 40.8262 95.9121 40.8163 95.7328C40.5385 95.6948 40.2279 95.6984 39.995 95.5207C39.7928 95.3565 39.8366 95.0751 39.8585 94.8484C39.7204 94.7499 39.5161 94.7431 39.4186 94.5956C39.3957 94.4289 39.5463 94.3205 39.6078 94.1829C39.5385 94.0057 39.3639 93.9046 39.2727 93.7425C39.2216 93.6518 39.2232 93.545 39.2149 93.446C39.0611 93.4856 38.8886 93.5158 38.7417 93.4408C38.5478 93.3521 38.4165 93.1406 38.4295 92.9269C38.4295 92.7836 38.5249 92.6689 38.5848 92.547C38.3909 92.5975 38.2127 92.8399 38.0037 92.7116C37.8886 92.5428 37.8682 92.3317 37.8114 92.141C37.5842 92.2129 37.4159 92.3854 37.2215 92.5136C37.0402 92.6309 36.8161 92.634 36.6102 92.6027C36.4065 92.2588 36.0573 92.0248 35.8817 91.662C35.792 91.4812 35.7696 91.2774 35.7639 91.0783C35.5497 91.0241 35.4543 90.8058 35.274 90.7026C35.0734 90.5947 34.8675 90.798 34.6617 90.7333C34.3746 90.6572 34.164 90.4352 33.9165 90.2857C33.6538 90.5098 33.5678 90.8548 33.399 91.1424C33.3052 91.3019 33.165 91.4504 32.981 91.4989C32.8659 91.4812 32.7533 91.4171 32.635 91.4489C32.3833 91.4895 32.154 91.7105 31.8887 91.6115C31.588 91.5229 31.4724 91.2029 31.304 90.972C31.2425 90.8313 31.07 90.8678 30.9554 90.8079C30.7746 90.7193 30.6427 90.5186 30.4176 90.5593C30.133 90.7104 30.0783 91.082 29.7985 91.2347C29.6447 91.303 29.5009 91.1894 29.3748 91.1185C29.2476 91.2863 29.1111 91.5005 28.8646 91.4572C28.7494 91.748 28.5472 92.0216 28.2575 92.1551C28.1204 92.1957 28.0115 92.0951 27.9068 92.0279C27.7687 92.2364 27.5279 92.4307 27.2621 92.3479C26.8853 92.2442 26.6878 91.8398 26.6737 91.4734C26.5054 91.736 26.1068 91.9012 25.8384 91.6917C25.6648 91.5422 25.6997 91.2951 25.7128 91.0924C25.534 91.1612 25.4277 91.3598 25.2286 91.3822C25.0645 91.3405 24.9024 91.2399 24.8357 91.0789C24.7601 90.8954 24.8008 90.6942 24.8216 90.5056C24.6742 90.5165 24.5434 90.5942 24.3995 90.6192C24.3026 90.6239 24.2296 90.5478 24.2234 90.4556C24.1989 90.2481 24.2103 90.035 24.1343 89.8375C23.8185 89.9771 23.6121 90.2638 23.3453 90.4702C23.1967 90.5864 23.0143 90.6458 22.8314 90.6823C22.6058 90.528 22.5276 90.2617 22.4359 90.0204C22.2118 90.172 22.1404 90.4399 22.0278 90.6703C21.6563 90.6968 21.2612 90.775 20.9043 90.6312C20.6546 90.5249 20.5775 90.2445 20.5181 90.0058C20.2153 90.0334 20.1392 90.3842 19.9224 90.5468C19.7703 90.4045 19.5592 90.4139 19.3674 90.3873C19.2361 90.369 19.1689 90.245 19.0886 90.1569C18.9922 90.2726 18.9526 90.4967 18.765 90.4879C18.58 90.4311 18.4575 90.2711 18.3606 90.1137C17.9281 90.4269 17.3647 90.5014 16.8446 90.4509C16.6617 90.4201 16.4632 90.3941 16.3115 90.2799C16.3152 90.109 16.3594 89.9333 16.4746 89.8031C16.6898 89.5493 17.0369 89.4482 17.2282 89.1699C17.0536 89.088 16.8811 89.2267 16.7003 89.1944C16.7675 88.7816 16.9119 88.386 17.0062 87.979C17.4846 86.1315 17.878 84.2538 18.0302 82.3484C18.0396 82.1389 17.753 82.2119 17.6284 82.2588C17.1881 82.399 16.8707 81.9492 16.459 81.894C16.4319 81.8419 16.4048 81.7918 16.3772 81.7429C16.4876 81.3697 16.7566 81.0409 16.7086 80.6307C16.9754 80.3383 17.0625 79.9428 17.1969 79.5816C17.6279 78.3355 18.0021 77.0691 18.481 75.8397C18.2767 75.8793 18.05 75.9132 17.8556 75.8199C17.7483 75.7001 17.7207 75.5348 17.7649 75.3837C17.6222 75.4197 17.4231 75.4389 17.3371 75.2909C17.2136 75.1377 17.1933 74.9246 17.2709 74.7468C17.9411 73.1427 18.481 71.4875 19.0042 69.8308C18.8374 69.7922 18.667 69.7807 18.4987 69.7573C18.3981 69.5989 18.3246 69.4165 18.4065 69.233C18.2632 69.2695 18.1402 69.4107 17.9828 69.3565C17.8869 69.0563 17.9291 68.7363 17.9823 68.4325C18.0933 67.8457 18.3398 67.2964 18.4841 66.719C18.556 65.8684 18.8713 65.0669 19.1876 64.2831C18.6858 63.6806 18.2642 62.9968 18.0469 62.2386C17.8066 61.4172 17.8254 60.538 17.9974 59.7052C18.137 59.1033 18.3257 58.5133 18.4581 57.9098C18.5237 57.5481 18.6488 57.1505 18.4685 56.8024C18.2579 56.3808 17.9484 56.017 17.754 55.5865C17.5028 55.0278 17.2495 54.4582 17.1578 53.8479C17.0942 53.4274 17.1312 52.9672 17.3762 52.6071C17.4674 52.4606 17.6055 52.3538 17.7217 52.2297C17.5721 51.9551 17.2261 52.1146 16.9822 52.0864C16.867 51.9582 16.7175 51.8144 16.7982 51.6273C16.5684 51.646 16.4053 51.4788 16.2443 51.3443C16.385 50.8059 16.9358 50.5521 17.1943 50.0909C17.2626 49.5526 17.3022 49.0079 17.3824 48.4701C17.4934 47.6055 17.6222 46.7362 17.5867 45.8628C17.4783 45.7476 17.2553 45.7502 17.1187 45.8424C16.7597 45.6835 16.4126 45.4776 16.175 45.1582C15.9384 45.1472 15.6794 45.0836 15.5434 44.8715C15.4157 44.7319 15.4709 44.4973 15.3047 44.3895C15.0978 44.2269 14.8153 44.1633 14.6569 43.9423C14.5558 43.8058 14.5621 43.6296 14.573 43.4691C14.5876 43.3331 14.5011 43.2169 14.4604 43.0933C14.3744 42.9078 14.3692 42.7014 14.3797 42.5018C14.1931 42.3252 13.9971 42.1422 13.8914 41.9035C13.8658 41.6946 14.0065 41.4903 13.9398 41.2802C13.8611 41.077 13.6886 40.9326 13.5682 40.756C13.6407 40.2046 13.2259 39.7407 13.2384 39.1972C13.2399 38.9788 13.3853 38.8021 13.5474 38.6734C13.4588 38.5327 13.3739 38.3769 13.3848 38.2049C13.3958 37.7687 13.723 37.4018 13.6959 36.9593C13.6933 36.8066 13.6053 36.6769 13.5682 36.5346C13.6006 36.3126 13.7428 36.1156 13.9508 36.027C13.8742 35.8222 13.7569 35.6288 13.7413 35.4063C13.4979 35.2286 13.2884 34.9732 13.2993 34.6553C12.9517 34.2821 12.8897 33.7573 12.7297 33.293C12.3326 33.305 11.9725 33.5207 11.5713 33.4988C11.4035 33.2549 11.3727 32.9542 11.38 32.666C11.4613 32.6572 11.5504 32.6728 11.6249 32.6316C11.7156 32.5498 11.7625 32.4336 11.8266 32.3325C11.3831 31.9661 10.9251 31.6149 10.431 31.3188C9.88226 32.2267 8.89159 32.775 7.87277 32.9808C7.58979 33.4175 7.28336 33.8704 6.82007 34.1336C6.5569 34.29 6.2536 34.3593 5.95238 34.3926C6.28852 35.4005 7.14109 36.1296 7.48713 37.1324C7.60542 37.444 7.65181 37.776 7.68359 38.1064C7.69506 38.2528 7.87589 38.2914 7.93061 38.4154C7.95719 38.5723 7.93635 38.7328 7.8884 38.884C8.02546 39.1565 8.11249 39.5 7.94156 39.7788C8.17867 40.3911 8.46373 41.0014 8.51272 41.6659C8.47833 41.7524 8.36107 41.7363 8.3126 41.6742C8.21203 41.5533 8.15001 41.4053 8.04526 41.287C7.97751 41.4929 8.08747 41.7039 8.03797 41.9098C8.02025 42.0182 7.90456 42.0453 7.82117 42.0865C7.78678 41.9244 7.72998 41.7675 7.70965 41.6028C7.6492 41.6909 7.60907 41.8009 7.50537 41.8493C7.45899 41.7164 7.41521 41.5825 7.37717 41.4475C7.27919 41.618 7.25053 41.8321 7.10566 41.9739C7.03061 42.0521 6.87688 41.964 6.91961 41.8587C6.94515 41.7482 6.99518 41.6456 7.02957 41.5387C6.94671 41.6232 6.88469 41.7248 6.82216 41.8254C6.66894 41.7806 6.70386 41.6127 6.72888 41.4924C6.7763 41.3006 6.88313 41.1281 6.90658 40.93C6.69813 40.9894 6.70959 41.3381 6.45111 41.2818C6.66686 40.7351 6.98267 40.2285 7.34746 39.7699C7.31984 39.5067 7.2745 39.2076 7.46211 38.9892C7.35476 38.8204 7.28805 38.6223 7.33808 38.4222C7.19425 38.233 7.16507 37.9943 7.12598 37.7676C7.1067 37.604 6.97589 37.4925 6.91023 37.3497C6.88574 37.209 6.95557 37.0526 6.86385 36.9265C6.66321 36.5721 6.39326 36.2646 6.14208 35.9462C6.11133 36.2704 6.15771 36.5945 6.26611 36.9004C6.22806 37.5185 5.87265 38.0663 5.81741 38.6818C5.79761 38.9074 5.88828 39.1372 5.8195 39.3593C5.80021 39.4416 5.75123 39.5245 5.78406 39.6115C5.97375 40.4354 6.09413 41.2761 6.14104 42.1209C6.16032 42.2736 6.22754 42.4502 6.4016 42.4753C6.32187 42.5295 6.24161 42.5837 6.16136 42.6373C6.24526 42.7614 6.32864 42.8974 6.48759 42.9339C6.45476 43.0318 6.35574 43.059 6.27028 43.0954C6.55586 43.8209 7.21509 44.4051 7.23333 45.2249C6.93055 45.1019 6.84874 44.7683 6.70647 44.5093C6.7049 44.9336 7.06657 45.3291 6.87167 45.7585C6.76952 45.7841 6.71845 45.6783 6.6679 45.6116C6.52563 45.3948 6.51 45.1248 6.38076 44.9028C6.34011 45.1368 6.48446 45.4021 6.31926 45.609C6.1822 45.6283 6.15511 45.4834 6.09778 45.3943C6.05557 45.5657 5.94196 45.7059 5.76269 45.7434C5.63553 45.5996 5.78145 45.4182 5.76582 45.2551C5.53183 45.2358 5.65377 45.5615 5.47346 45.6027C5.35204 45.6079 5.34266 45.4485 5.27335 45.3781C5.25927 45.4703 5.25094 45.5647 5.24416 45.6595C5.19101 45.6522 5.13837 45.6455 5.08574 45.6392C5.06593 45.561 5.04822 45.4823 5.0331 45.4047C4.969 45.524 4.88354 45.6387 4.72876 45.6121C4.83299 44.7293 5.00027 43.7948 5.57456 43.0845C5.65013 43.0235 5.60687 42.9266 5.60375 42.8489C5.42864 41.6211 5.13264 40.3906 5.23374 39.1425C5.25771 38.737 5.41718 38.3529 5.43177 37.9469C5.43646 37.7828 5.35152 37.6212 5.40102 37.4591C5.42917 37.3075 5.49222 37.1626 5.61104 37.061C5.26188 36.323 5.48701 35.4959 5.43802 34.7158C5.1785 34.5896 4.90126 34.402 4.84654 34.0961C4.7913 33.7172 5.03571 33.3759 5.29106 33.1226C5.82419 32.6129 6.54127 32.2319 7.29431 32.2564C7.49859 31.5888 7.97595 31.003 8.6159 30.7138C8.95881 30.5491 9.33299 30.4621 9.7082 30.411C9.19958 29.7679 9.03281 28.884 9.27358 28.0997C9.4122 28.108 9.57167 28.1169 9.6686 28.232C9.98597 28.6255 9.72488 29.2822 10.1772 29.5938C10.1986 29.3838 10.0912 29.1743 10.1506 28.969C10.2971 28.8543 10.4873 28.8121 10.6692 28.8011C10.6905 28.6808 10.7015 28.5494 10.7838 28.452C10.9146 28.2873 11.12 28.1987 11.2409 28.0241C11.306 27.9277 11.3117 27.8073 11.3368 27.6973C11.8391 27.1887 12.6636 27.0276 13.3119 27.3372C13.3098 27.6577 13.3092 27.9782 13.3119 28.2987C13.8523 28.0371 14.3395 27.6838 14.8409 27.356C15.4214 26.9667 16.1218 26.7306 16.5788 26.1766C16.4392 25.7086 15.805 25.7967 15.5996 25.3824C15.6658 25.2151 15.7575 25.0608 15.8566 24.9112C15.6705 24.8263 15.4584 24.7439 15.3594 24.5516C15.3927 24.2348 15.6768 24.0039 15.9587 23.895C16.583 23.6589 17.2662 23.7454 17.9062 23.8637C17.7191 23.7136 17.3699 23.7345 17.3079 23.4619C17.2631 23.3603 17.2876 23.2524 17.3053 23.1487C17.1875 23.0679 17.0427 23.01 16.9645 22.885C16.9129 22.6765 16.9723 22.4607 17.0734 22.2773C17.8134 22.209 18.4539 22.7562 19.1991 22.6619C19.0558 22.5077 18.8635 22.4185 18.6712 22.343C18.6738 22.2309 18.6905 22.1194 18.7311 22.0141C18.5936 21.9552 18.4086 21.9568 18.3168 21.8291C18.2579 21.5727 18.4846 21.3408 18.7186 21.2767C19.3346 21.0948 20.0006 21.2876 20.6109 21.0687C20.6817 20.8634 20.613 20.657 20.4806 20.4949C20.3378 20.3402 20.5207 20.1473 20.4743 19.9665C20.4207 19.7372 20.2935 19.5282 20.2789 19.2885C19.7552 19.4813 19.1564 19.5907 18.6196 19.3864C18.4336 19.302 18.1991 19.1639 18.2126 18.9283C18.1798 18.5891 18.4179 18.305 18.4325 17.9715C18.1954 17.8949 17.8624 18.108 17.7107 17.836C17.3934 18.0637 16.9739 17.9319 16.6758 17.7365C16.5366 17.6364 16.3787 17.5238 16.324 17.355C16.3693 17.0126 16.3631 16.6676 16.3615 16.3231C16.3537 15.9426 16.5841 15.618 16.6424 15.2511C16.6768 14.9681 16.6315 14.6762 16.7154 14.4C16.9556 13.5646 17.5054 12.8725 17.8838 12.1017C17.9494 11.9865 17.8984 11.8536 17.9093 11.7296C17.9526 11.6426 18.0141 11.566 18.0521 11.4763C18.0365 11.4034 18.012 11.3335 17.9885 11.2632C18.1219 11.0589 18.1433 10.8134 18.1657 10.5768C18.2371 10.5565 18.3174 10.5539 18.3804 10.5096C18.4409 10.422 18.4534 10.3121 18.5024 10.2183C18.5467 10.1385 18.6462 10.1333 18.7233 10.1031C18.5988 9.96028 18.4737 9.81853 18.3564 9.67C18.605 9.13842 19.1308 8.83615 19.5608 8.46925C19.3925 8.47603 19.2054 8.51511 19.0548 8.41766C18.9583 8.35929 18.9464 8.24046 18.926 8.14092C19.0146 8.03044 19.1058 7.90275 19.2674 7.91318C19.1209 7.7881 19.1194 7.5614 19.2533 7.42642C19.4607 7.34355 19.591 7.55202 19.7473 7.6427C19.6947 7.41026 19.6619 7.11529 19.8735 6.94904C20.0136 6.82552 20.2044 6.8891 20.3571 6.9506C20.2638 6.74057 20.0282 6.55035 20.1043 6.29968C20.2831 5.94425 20.8136 6.0021 21.0299 6.28873C21.144 6.41173 21.1414 6.58683 21.1398 6.7437C21.341 6.68221 21.3665 6.44247 21.5307 6.33928C21.6667 6.32938 21.8178 6.37629 21.8506 6.52586C21.9861 6.39244 22.0216 6.11258 22.2618 6.1376C22.4552 6.12665 22.5208 6.33668 22.6376 6.44768C22.871 6.53941 23.1592 6.47478 23.3359 6.29499C23.5198 6.11414 23.646 5.88014 23.8502 5.71859C24.3542 5.32563 25.016 5.13489 25.6513 5.23391C26.2824 5.3126 26.8223 5.69878 27.2585 6.1402C27.8765 5.96926 28.541 5.92809 29.1658 6.08757C29.4832 6.17304 29.8084 6.33355 29.9793 6.62748C30.058 6.76351 30.1169 6.94591 30.0278 7.09079C29.9637 7.16115 29.8636 7.16636 29.7781 7.18825C30.0299 7.39411 30.3087 7.60986 30.4191 7.92881C30.4869 8.10444 30.4483 8.29258 30.404 8.46769C30.6375 8.73765 31.0435 8.70429 31.2957 8.9482C31.5969 9.22493 31.7074 9.63873 31.9601 9.95299C32.2442 10.3095 32.6788 10.5304 32.9039 10.9369C33.0712 11.2512 32.9618 11.6134 32.9539 11.9485C32.9545 12.0902 32.9727 12.2482 33.0858 12.3477C33.1931 12.2117 33.2682 12.0074 33.4761 12.0131C33.5262 12.1127 33.5819 12.2237 33.5397 12.3373C33.4594 12.577 33.2197 12.7276 32.9758 12.7547C33.0769 12.9074 33.153 13.081 33.2911 13.2055C33.3953 13.3045 33.5465 13.3066 33.6809 13.329C33.6627 13.4004 33.657 13.4776 33.6179 13.5422C33.5116 13.672 33.3198 13.6965 33.2192 13.8314C33.1859 14.0065 33.2354 14.1837 33.2828 14.3516C33.3901 14.2239 33.4178 13.9607 33.6408 14.0065C33.7476 14.141 33.7299 14.3328 33.7409 14.4954C33.7304 14.6731 33.7487 14.8847 33.6231 15.027C33.5043 15.0786 33.4021 14.978 33.3005 14.9337C33.3177 15.0806 33.1911 15.1348 33.0821 15.1885C33.19 15.4856 33.4579 15.6753 33.6121 15.9442C34.0603 15.8796 34.3933 15.5528 34.7915 15.3704C34.3277 15.1031 34.3553 14.5142 34.2276 14.0618C34.3537 13.8601 34.6377 13.8637 34.7607 13.6574C34.4501 13.4437 34.0843 13.2212 33.9858 12.8293C33.9306 12.6276 34.0984 12.4592 34.2808 12.4113C34.1051 12.109 34.1291 11.7489 34.0301 11.4232C33.9905 11.2752 33.8748 11.1704 33.7826 11.0558C33.7977 10.9421 33.8743 10.8509 33.9123 10.7451C33.7023 10.4377 33.263 10.4486 33.0259 10.174C32.9211 10.0478 32.9665 9.87794 33.0024 9.73514C32.7783 9.73983 32.5454 9.75495 32.3307 9.67781C32.2442 9.49906 32.1462 9.29372 32.2348 9.09568C31.9445 9.04148 31.6006 8.98572 31.4301 8.7142C31.3733 8.61465 31.2983 8.46143 31.402 8.36711C31.5344 8.28372 31.7647 8.27538 31.7475 8.06744C31.5099 7.9507 31.2238 7.90328 31.0409 7.69794C30.9147 7.55619 30.9116 7.35867 30.8876 7.18147C30.982 7.13718 31.0779 7.09757 31.1732 7.05483C30.9747 6.62801 30.4963 6.39453 30.3681 5.92809C30.3509 5.83324 30.2836 5.70295 30.3879 5.63572C30.526 5.53305 30.7006 5.58152 30.8533 5.61696C30.8392 5.46895 30.8256 5.31104 30.7287 5.19065C30.5692 4.9775 30.2967 4.82584 30.2644 4.53764C30.2336 4.38859 30.3405 4.26977 30.4176 4.15564C30.5223 4.04515 30.3785 3.91799 30.3436 3.80698C30.2696 3.6642 30.4134 3.54381 30.4712 3.42447L30.4712 3.42445ZM27.666 6.57903C28.0026 6.67649 28.3049 6.94801 28.678 6.84847C28.4711 6.51232 28.0115 6.47272 27.666 6.57903ZM29.0423 6.53734C29.0735 6.8886 29.4269 7.01993 29.6989 7.15178C29.6411 6.81929 29.3242 6.65408 29.0423 6.53734ZM31.9403 10.5601C32.1055 10.851 32.4036 11.0777 32.4448 11.4289C32.4802 11.6306 32.3484 11.8047 32.3046 11.9939C32.3129 12.0512 32.3192 12.1455 32.3973 12.145C32.6464 11.7718 32.6157 11.2538 32.3817 10.8807C32.2837 10.7196 32.1206 10.6091 31.9403 10.5601ZM18.0401 12.22C17.9807 12.4353 17.9421 12.6703 18.0609 12.8736C18.0797 12.6797 18.1568 12.4968 18.174 12.3039C18.1401 12.2831 18.0734 12.2409 18.0401 12.22ZM17.6404 13.253L17.5533 13.1717C17.5002 13.3223 17.4376 13.4802 17.4851 13.6428C17.5632 13.5448 17.6174 13.4312 17.6612 13.315C17.6893 13.2029 17.8499 13.2592 17.902 13.1696C18.014 13.02 17.9275 12.8324 17.8733 12.6797C17.7404 12.8459 17.681 13.0476 17.6404 13.253ZM17.8488 13.647C18.0072 13.575 18.1073 13.4322 18.1756 13.2775C18.1057 13.2514 18.0364 13.2253 17.9671 13.1998C17.8681 13.3285 17.8285 13.4859 17.8488 13.647ZM17.9942 13.9763C18.0109 14.0352 18.0771 14.0561 18.1188 14.0952C18.175 14.0076 18.2517 13.9258 18.2678 13.8189C18.2892 13.709 18.2235 13.6094 18.1907 13.5094C18.1052 13.6522 17.9614 13.7944 17.9942 13.9763ZM17.6331 14.0337C17.7305 13.9101 17.8848 13.6584 17.669 13.5698C17.5189 13.6834 17.5142 13.8961 17.6331 14.0337ZM17.2193 13.9539L17.3631 13.9456C17.2615 14.0535 17.1797 14.203 17.2975 14.3318C17.3365 14.3156 17.4147 14.2823 17.4538 14.2656C17.4621 14.1436 17.4726 14.0222 17.4715 13.8997L17.4074 13.9227C17.3814 13.8846 17.3558 13.8471 17.3308 13.8096C17.3511 13.7882 17.3923 13.746 17.4126 13.7246C17.2792 13.6767 17.187 13.8393 17.2193 13.9539ZM17.7951 14.0269C17.7248 14.1499 17.6482 14.2765 17.6508 14.4235C17.8295 14.411 17.952 14.24 17.9186 14.0654C17.8879 14.0561 17.8259 14.0368 17.7951 14.0269ZM18.2563 14.0769C18.1782 14.2046 18.0849 14.338 18.112 14.497C18.2725 14.4214 18.3283 14.2359 18.2563 14.0769ZM17.0583 14.2963C17.0129 14.4209 17.0186 14.5553 17.0259 14.6861C17.0807 14.6606 17.1401 14.6418 17.188 14.6033C17.2297 14.497 17.2005 14.2984 17.0583 14.2963ZM17.4522 14.7466C17.5549 14.6278 17.6633 14.4475 17.5038 14.3203C17.4543 14.4558 17.3407 14.6106 17.4522 14.7466ZM17.9463 14.4506C17.828 14.6861 17.5966 14.8347 17.4767 15.0682C17.5356 15.1338 17.581 15.211 17.6305 15.2844C17.8144 15.089 17.988 14.8712 18.1073 14.6273C18.0541 14.5673 18.001 14.5079 17.9463 14.4506ZM17.1614 15.0067C17.2167 14.979 17.273 14.9519 17.3251 14.9181C17.3105 14.8456 17.2724 14.7805 17.2422 14.7143C17.1828 14.8003 17.1296 14.8993 17.1614 15.0067ZM16.9728 14.9749C16.9009 15.162 16.817 15.3584 16.8602 15.5633C16.9525 15.446 17.0499 15.3225 17.0817 15.1734C17.1031 15.0864 17.0186 15.0338 16.9728 14.9749ZM17.3365 15.1677C17.3282 15.1911 17.3115 15.2386 17.3032 15.262C17.3266 15.3433 17.3459 15.4262 17.3652 15.5096C17.4163 15.4892 17.4653 15.4642 17.5116 15.4345C17.5195 15.3115 17.4257 15.2323 17.3365 15.1677ZM17.1666 15.4371C17.0228 15.6831 16.7508 15.8478 16.6966 16.1433C16.9155 16.0709 17.0755 15.8968 17.2803 15.7978C17.2625 15.6717 17.2323 15.5471 17.1666 15.4371ZM32.7689 15.4382C32.7663 15.5794 32.7668 15.7212 32.7668 15.8629C32.8773 15.9281 32.9841 16 33.0925 16.0693C33.1327 15.8045 32.9716 15.5846 32.7689 15.4382ZM32.2973 16.0026C32.3306 16.1662 32.5047 16.1918 32.6345 16.247C32.6345 16.1433 32.6345 16.0396 32.635 15.9364C32.5188 15.9385 32.4052 15.9625 32.2973 16.0026ZM17.0645 16.1991C17.1083 16.2668 17.151 16.3361 17.1932 16.4065C17.3157 16.3455 17.4564 16.2637 17.4705 16.1115C17.4569 16.0557 17.4434 15.9744 17.372 15.9698C17.2646 16.0396 17.1479 16.0995 17.0645 16.1991ZM17.681 16.0802C17.6966 16.2288 17.7378 16.3841 17.6847 16.5305C17.655 16.6243 17.5492 16.6342 17.472 16.6686C17.4726 16.7843 17.4731 16.9005 17.472 17.0168C17.5799 17.0454 17.7071 17.0553 17.7805 17.1507C17.9202 17.3159 17.9077 17.5457 17.9249 17.7479C18.0114 17.7146 18.0974 17.6786 18.1834 17.6427C18.1094 17.5635 18.001 17.4889 18.0125 17.3665C18.0234 17.2747 18.0614 17.1903 18.0911 17.1038C17.9145 17.0282 17.7743 16.8875 17.7128 16.7046C17.8118 16.5889 17.9697 16.493 17.9765 16.3252C17.9306 16.1949 17.7899 16.1443 17.681 16.0802ZM33.2171 16.074C33.2171 16.1037 33.2166 16.1636 33.2166 16.1939C33.2463 16.1939 33.3057 16.1944 33.3354 16.1944C33.3359 16.1647 33.3375 16.1053 33.338 16.0756C33.3078 16.075 33.2473 16.0745 33.2171 16.074ZM32.7689 16.1266C32.7668 16.2355 32.7663 16.3445 32.7668 16.4534C32.8544 16.4523 32.943 16.4508 33.0316 16.4492C33.0269 16.2866 32.9367 16.1511 32.7689 16.1266ZM16.6408 16.6525C16.7451 16.5925 16.7847 16.4758 16.8284 16.3716C16.6987 16.407 16.6283 16.5185 16.6408 16.6525ZM32.3953 16.4211C32.4463 16.5071 32.4807 16.6009 32.5287 16.6884C32.6001 16.7463 32.6376 16.6374 32.6219 16.5774C32.6136 16.494 32.537 16.4487 32.4844 16.3955C32.462 16.4018 32.4177 16.4148 32.3953 16.4211ZM32.1847 16.5941C32.1607 16.6942 32.1352 16.7942 32.1086 16.8943C32.1284 16.9146 32.167 16.9558 32.1863 16.9761C32.2884 16.8661 32.328 16.6905 32.1847 16.5941ZM17.0437 16.6832C17.0369 16.7713 17.039 16.8604 17.0197 16.9474C16.916 17.0611 16.7623 17.1064 16.6393 17.195C16.7539 17.2815 16.8357 17.3998 16.8946 17.5301C17.0103 17.4837 17.1312 17.4238 17.2599 17.454C17.3579 17.4848 17.4429 17.5442 17.5309 17.5958C17.5757 17.5103 17.6206 17.4243 17.6643 17.3388C17.5163 17.2805 17.3574 17.2831 17.2016 17.2925C17.1422 17.0913 17.1104 16.8823 17.0437 16.6832ZM33.7116 16.9725C33.7278 17.0595 33.7252 17.1533 33.7627 17.2356C33.8075 17.3164 33.906 17.3326 33.9858 17.3612C34.0061 17.1736 33.8633 17.048 33.7116 16.9725ZM34.164 17.3711C34.1801 17.6051 34.3151 17.8058 34.5074 17.935C34.5387 17.6844 34.3047 17.5395 34.164 17.3711ZM32.772 17.4238C32.8044 17.5702 32.7658 17.7818 32.9341 17.8506C32.9607 17.6844 32.8763 17.5431 32.772 17.4238ZM33.8211 17.4764C33.8289 17.7292 33.51 17.8553 33.5647 18.106C33.6632 17.9606 33.7945 17.8407 33.8914 17.6948C33.941 17.6145 33.8518 17.5457 33.8211 17.4764ZM32.0883 18.0976C32.0638 18.3718 32.08 18.648 32.068 18.9232C32.1738 18.9706 32.2629 19.0461 32.3598 19.1087C32.3358 18.7616 32.439 18.4301 32.5156 18.0971C32.5584 17.9387 32.5302 17.6984 32.3702 17.6255C32.1946 17.7125 32.1076 17.9105 32.0883 18.0976ZM34.7086 18.1352C34.5621 18.3504 34.2687 18.3509 34.0759 18.2008C34.0572 18.3327 34.153 18.4374 34.1708 18.5615C34.1041 18.6761 34.053 18.8132 33.9368 18.8877C33.7116 18.9216 33.4917 18.8424 33.2822 18.772C33.2114 18.859 33.1431 18.9503 33.1207 19.0633C33.2671 19.0383 33.4224 18.9805 33.5689 19.0415C33.7163 19.0821 33.8044 19.2166 33.8758 19.3422C34.0613 19.2536 34.2052 19.1035 34.3719 18.9867C34.3625 18.9742 34.3433 18.9482 34.3339 18.9357C34.3401 18.8007 34.3276 18.6428 34.4345 18.5406C34.5522 18.4213 34.7273 18.4067 34.8816 18.366C34.8691 18.2592 34.7972 18.1873 34.7086 18.1352ZM32.9909 18.2509C32.9524 18.3744 32.9638 18.5005 33.0352 18.6099C33.1374 18.5766 33.2437 18.5615 33.3505 18.5474C33.2687 18.4077 33.1254 18.3301 32.9909 18.2509ZM32.6022 18.2858C32.5969 18.562 32.5344 18.834 32.5396 19.1108C32.5719 19.1087 32.6371 19.1045 32.6694 19.1024C32.7199 19.2218 32.7632 19.3568 32.8825 19.4266C32.8283 19.0378 32.734 18.6553 32.6022 18.2858ZM31.9028 18.3097C31.8095 18.3911 31.7032 18.4604 31.6261 18.5589C31.5677 18.7136 31.7741 18.7272 31.8679 18.7731C31.9356 18.6277 31.9643 18.4619 31.9028 18.3097ZM31.1873 19.2927C31.1737 19.3901 31.2899 19.3839 31.3478 19.4219C31.3504 19.3234 31.3488 19.2244 31.3467 19.1259C31.2873 19.1707 31.1763 19.1968 31.1873 19.2927ZM32.0284 19.141C32.0159 19.3151 31.896 19.4808 31.9539 19.6564C32.0107 19.5022 32.1019 19.3661 32.191 19.2291C32.1363 19.1994 32.0826 19.1702 32.0284 19.141ZM25.2343 19.9269C25.2922 20.2229 25.3511 20.5205 25.3495 20.8238C25.5476 20.927 25.7357 20.7972 25.8811 20.6669C26.1364 20.4262 26.5638 20.4402 26.7498 20.1145C26.6174 20.0598 26.4872 20.0025 26.3636 19.9311C26.2141 19.9629 26.0426 19.9941 25.9097 19.8988C25.6726 19.7362 25.5543 19.4584 25.3375 19.2734C25.2573 19.4803 25.188 19.7033 25.2343 19.9269ZM33.128 19.3901C33.1134 19.5418 33.1775 19.682 33.2244 19.8221C33.1785 19.9087 33.1118 20.0072 32.9982 19.99C32.7246 20.0103 32.5949 19.732 32.4046 19.5897C32.3739 19.6705 32.3426 19.7513 32.3119 19.8326C32.4797 19.8904 32.6454 19.9618 32.7887 20.0692C32.9107 20.1515 33.031 20.2724 32.9904 20.4345C33.08 20.4856 33.1728 20.5309 33.2687 20.5705C33.302 20.1802 33.4183 19.7137 33.128 19.3901ZM31.1247 19.5522C31.0429 19.5918 31.021 19.6846 30.9861 19.7601C31.0851 19.7278 31.1883 19.7064 31.2837 19.6616C31.3301 19.5704 31.1961 19.4954 31.1247 19.5522ZM26.632 19.6517C26.6388 19.8076 26.8561 19.7273 26.9619 19.7695C26.9119 19.634 26.7566 19.5543 26.632 19.6517ZM30.0439 19.7523C30.0689 19.9368 30.0361 20.1416 30.144 20.3053C30.2227 20.1234 30.2748 19.843 30.0439 19.7523ZM29.1231 19.9874C29.0058 20.064 28.8766 20.1552 28.9115 20.3157C29.0376 20.2901 29.122 20.1838 29.2398 20.1374C29.2356 20.1119 29.2268 20.0614 29.2226 20.0358C29.1892 20.0191 29.1559 20.0035 29.1231 19.9874ZM31.5807 20.04C31.5041 20.1494 31.4093 20.2443 31.3337 20.3542C31.4484 20.36 31.5641 20.361 31.6797 20.361C31.674 20.2761 31.6688 20.1916 31.6615 20.1072C31.6339 20.0843 31.6068 20.0619 31.5807 20.04ZM27.8442 20.3501C27.8437 20.4329 27.8442 20.5163 27.8463 20.5997C27.9583 20.5361 28.0745 20.4762 28.2048 20.4626C28.3356 20.4329 28.5383 20.4382 28.5284 20.2505C28.3096 20.3329 28.0751 20.3386 27.8442 20.3501ZM31.8762 20.2802C31.8272 20.348 31.7751 20.4152 31.7022 20.4585C31.7084 20.5747 31.7517 20.7217 31.6433 20.8061C31.4353 20.9619 31.0987 20.9181 30.958 21.1683C30.8626 21.308 30.971 21.4753 31.0648 21.5811C31.217 21.6024 31.3499 21.5164 31.4765 21.4461C31.4901 21.2402 31.5474 21.0172 31.7204 20.8869C32.0487 20.6372 32.5099 20.6623 32.8216 20.3798C32.7642 20.3344 32.7074 20.2881 32.6517 20.2422C32.4833 20.4554 32.1925 20.4736 31.9752 20.6143C31.995 20.52 32.0221 20.4267 32.0357 20.3313C31.9862 20.3027 31.933 20.286 31.8762 20.2802ZM27.1724 21.234C27.2876 21.2532 27.3991 21.2902 27.5107 21.3262C27.5909 21.0594 27.7983 20.692 27.5211 20.4752C27.395 20.7243 27.3762 21.0271 27.1724 21.234ZM30.5525 20.9588C30.5338 21.0526 30.625 21.0979 30.6922 21.1349C30.7005 21.0646 30.7125 20.9948 30.7276 20.9254C30.822 20.8004 31.009 20.755 31.0398 20.582C30.8027 20.5299 30.5921 20.7389 30.5525 20.9588ZM29.0715 20.9416C29.1366 21.1146 29.1575 21.3153 29.2976 21.4502C29.307 21.2814 29.3049 21.112 29.3049 20.9426C29.2268 20.9421 29.1491 20.9416 29.0715 20.9416ZM28.6353 21.1256C28.5837 21.2595 28.4977 21.3804 28.4716 21.5242C28.6452 21.554 28.8213 21.5748 28.9912 21.6233C28.9704 21.4956 28.9719 21.3564 28.8912 21.2486C28.8333 21.1646 28.7254 21.1506 28.6353 21.1256ZM27.7775 21.197C27.6691 21.5331 27.6863 21.8937 27.7155 22.2414C27.8192 22.2127 27.9192 22.1731 28.0188 22.1314C28.1266 22.2711 28.0907 22.4545 28.1063 22.6187C28.3351 22.7078 28.6071 22.7521 28.7531 22.9725C28.8146 22.775 28.8281 22.5676 28.85 22.3638C28.5248 22.318 28.4456 21.9704 28.2658 21.753C28.135 21.8255 28.0167 21.9172 27.8833 21.9849C27.6738 21.7661 27.8306 21.4591 27.7775 21.197ZM29.4258 21.6811C29.5582 21.7582 29.6775 21.8599 29.8245 21.9109C29.8704 21.6587 29.7865 21.2986 29.5134 21.2319C29.4696 21.3783 29.4316 21.5274 29.4258 21.6811ZM27.3913 21.6874C27.3918 21.7588 27.3955 21.8312 27.4007 21.9031C27.4325 21.9198 27.4956 21.9521 27.5273 21.9688C27.5284 21.8526 27.4929 21.7483 27.3913 21.6874ZM29.9694 21.6316C30.0069 21.8291 29.7927 22.1304 30.0554 22.2309C30.083 22.0683 30.1304 21.9047 30.1143 21.7379C30.0778 21.7113 30.0053 21.6582 29.9694 21.6316ZM29.3815 21.8416C29.4529 22.1559 29.4998 22.4774 29.6181 22.7792C29.6744 22.5937 29.7375 22.4081 29.7583 22.2148C29.6489 22.0741 29.5249 21.9464 29.3815 21.8416ZM30.2633 21.8322C30.2065 22.0407 30.1982 22.2565 30.2049 22.4707C30.4087 22.5134 30.6088 22.5718 30.8001 22.6541C30.7943 22.6077 30.7824 22.5155 30.7766 22.4696C30.6979 22.3993 30.5911 22.3659 30.5207 22.2872C30.4238 22.1356 30.503 21.8479 30.2633 21.8322ZM32.1701 21.8885C32.1196 22.0741 32.302 22.1757 32.4187 22.2789C32.4271 22.1048 32.2936 21.9865 32.1701 21.8885ZM31.8481 22.257C31.9455 22.3143 32.0456 22.369 32.1519 22.4113C32.129 22.2601 31.9862 22.1616 31.8481 22.257ZM29.8896 22.3445C29.7213 22.873 29.6906 23.4504 29.8599 23.9825C29.8719 24.042 29.9069 24.0836 29.9642 24.1081C30.0069 24.0482 30.0095 23.8846 30.1195 23.9476C30.2591 24.0367 30.4514 24.1483 30.5911 23.994C30.5703 23.957 30.5291 23.884 30.5088 23.847C30.3394 23.8929 30.1007 23.8934 30.0694 23.6735C30.0872 23.6011 30.0679 23.5307 30.0491 23.4619C30.0184 23.4869 29.9574 23.5375 29.9272 23.5625C29.7833 23.1638 30.2122 22.6963 29.8896 22.3445ZM31.0862 22.5254C31.021 22.7094 31.2034 22.8006 31.3243 22.8928C31.5364 23.0252 31.5156 23.3363 31.7465 23.4515C31.772 23.3853 31.8658 23.328 31.8298 23.2482C31.7647 23.0559 31.613 22.9074 31.5416 22.7172C31.3582 22.7484 31.2581 22.5494 31.0862 22.5254ZM30.0835 22.9517C30.1023 23.1388 30.034 23.3347 30.1085 23.5145C30.1658 23.353 30.2982 23.2451 30.4452 23.169C30.6349 23.3165 30.9059 23.4108 30.9799 23.6631C30.8767 23.6917 30.7719 23.7147 30.6672 23.7345C30.8324 23.8543 30.8829 24.067 30.8173 24.2561C31.0632 24.3046 31.0825 24.6053 31.2832 24.7122C31.4035 24.7012 31.4187 24.5574 31.4765 24.4771C31.2712 24.3724 31.0877 24.2119 31.0221 23.9836C31.1127 23.8366 31.2769 23.7996 31.4379 23.7965C31.4098 23.7418 31.3817 23.6886 31.3525 23.6355C31.2644 23.6537 31.1774 23.6735 31.0909 23.6949C31.0309 23.5536 30.9627 23.4015 31.0012 23.2451C31.0288 23.1523 31.081 23.0695 31.1216 22.9824C30.9955 23.0888 30.9027 23.268 30.713 23.2524C30.6641 23.1659 30.6484 23.0476 30.5546 22.997C30.4817 23.0304 30.4144 23.0757 30.3378 23.1007C30.2326 23.0924 30.1586 23.0148 30.0835 22.9517ZM28.5482 23.0888C28.5451 23.1638 28.5436 23.2394 28.5436 23.3149C28.5696 23.3165 28.6217 23.3191 28.6478 23.3202C28.6916 23.2211 28.6759 23.0987 28.5482 23.0888ZM30.194 24.4161C30.0976 24.7195 30.0017 25.0749 30.1888 25.3641C30.3837 25.2041 30.3211 24.9295 30.331 24.709C30.4176 24.5965 30.5515 24.4985 30.5609 24.3458C30.4389 24.3734 30.3175 24.3995 30.194 24.4161ZM30.6239 25.4209C30.6026 25.6414 30.5567 25.8613 30.4525 26.0594C30.3587 26.2563 30.2383 26.494 30.3842 26.6983C30.4619 26.5591 30.5739 26.4346 30.6109 26.2767C30.6041 26.1797 30.5624 26.0906 30.5296 26.0015C30.6906 25.8509 30.7459 25.6132 30.6239 25.4209ZM13.5682 29.1373C13.7819 29.7856 14.2061 30.4089 14.0888 31.1229C14.3114 31.039 14.5433 30.8545 14.7887 30.9749C14.7929 31.1339 14.7898 31.3017 14.7059 31.4429C14.599 31.6279 14.4531 31.7926 14.3947 32.0031C14.6506 32.3513 14.8565 32.7474 15.1968 33.0246C15.3552 33.1575 15.547 33.2425 15.745 33.2967C15.9029 33.072 16.0264 32.7755 16.3245 32.7124C16.4183 32.7703 16.5189 32.8162 16.6221 32.8563C16.6101 33.1929 16.6992 33.5213 16.7081 33.8564C16.818 33.8637 16.9509 33.8538 17.0275 33.9518C17.1552 34.0951 17.1891 34.3598 17.4163 34.3833C17.6576 34.427 17.7446 34.082 17.9848 34.1279C18.3137 34.1925 18.5498 34.45 18.8098 34.6402C18.7118 33.7782 18.2897 32.9959 17.7988 32.296C17.2287 31.4658 16.534 30.6888 16.2182 29.7142C15.9837 29.0091 16.0462 28.2336 16.3047 27.5436C15.3724 28.0403 14.5 28.6406 13.5682 29.1373ZM12.2211 28.1065C12.0627 28.3425 12.1492 28.6412 12.2284 28.8898C12.404 28.8283 12.5577 28.7178 12.7365 28.6657C12.7261 28.4139 12.6964 28.1633 12.7162 27.9115C12.5395 27.9282 12.3316 27.9465 12.2211 28.1065ZM12.6474 29.6538C12.6271 29.8153 12.7396 29.9378 12.8537 30.0353C12.86 29.882 12.86 29.7293 12.8574 29.5766C12.787 29.6011 12.7172 29.6267 12.6474 29.6538ZM39.6536 94.272C39.6375 94.5138 39.8699 94.6191 40.0017 94.7786C40.1148 94.9193 40.0632 95.1105 40.0148 95.2674C40.0872 95.293 40.1597 95.3216 40.2326 95.3508C40.2316 95.1517 40.316 94.9672 40.3196 94.7702C40.0778 94.6321 39.8126 94.5112 39.6536 94.272Z" fill="#41C3CA"/>
<path d="M20.0444 83.0046C20.0851 82.904 20.1106 82.7789 20.2383 82.7596C20.2378 82.8076 20.2367 82.903 20.2362 82.9509C20.1721 82.9686 20.1085 82.9863 20.0444 83.0046Z" fill="#41C3CA"/>
</svg>
