<svg width="29" height="67" viewBox="0 0 29 67" fill="none" xmlns="http://www.w3.org/2000/svg">
<path d="M15.4113 2.89024H15.6585C16.1279 2.90211 16.5961 3.00125 17.0021 3.19549C17.3282 3.34677 17.6075 3.55414 17.8709 3.76961C18.357 4.16905 18.7678 4.63196 19.0561 5.14371C19.2828 5.5428 19.435 5.96912 19.5168 6.4035C19.5567 6.60927 19.5752 6.81737 19.6006 7.0246C19.7857 8.63792 19.9219 10.2545 20.074 11.8698C20.0994 12.1129 20.1028 12.3617 20.1994 12.595C20.2704 12.7759 20.4154 12.943 20.6262 13.031C20.9109 13.1532 21.2424 13.1545 21.5563 13.1539C22.0067 13.1594 22.4681 13.1996 22.8822 13.3529C23.1573 13.4546 23.3991 13.6155 23.573 13.8169C23.8117 14.0905 23.94 14.4161 24.0256 14.7411C24.1676 15.2817 24.1836 15.8368 24.1883 16.3877C24.1942 18.2843 24.1622 20.1809 24.1746 22.0777C24.1849 23.9739 24.2658 25.8694 24.3429 27.7647C24.451 30.3203 24.5708 32.8761 24.6128 35.433V35.6212C24.5987 35.9869 24.5218 36.3551 24.3447 36.6933C24.1897 36.9916 23.9513 37.2658 23.6324 37.4626C23.3443 37.6431 22.9955 37.7542 22.6371 37.7985C22.3 37.8419 21.9561 37.8272 21.6202 37.7857C21.7782 37.4307 21.9647 37.0834 22.0928 36.7198C22.2335 36.3207 22.3881 35.9244 22.4986 35.519C22.5861 35.2069 22.6326 34.8882 22.645 34.5686C22.665 34.152 22.6782 33.7238 22.8661 33.3301C22.9126 33.2264 22.9769 33.1293 23.0393 33.0316C23.1463 32.8434 23.147 32.6287 23.1238 32.426C23.082 32.0769 22.955 31.74 22.8411 31.4033C22.3984 30.125 21.8736 28.866 21.4683 27.5792C21.3494 27.1895 21.2238 26.7997 21.1586 26.401C21.015 25.5436 21.0597 24.676 21.0031 23.8138C20.9795 23.4864 21.0011 23.1587 21.0002 22.8311C20.8651 22.8344 20.7298 22.8331 20.5948 22.8379C20.5964 23.7973 20.5386 24.7575 20.6029 25.7165C20.7341 27.5169 20.9766 29.3105 21.1071 31.1109C21.1777 32.0674 21.2049 33.0258 21.2251 33.9838C21.2516 35.4586 21.2491 36.9337 21.2799 38.4085C21.2919 38.8354 21.2982 39.2625 21.322 39.689C21.3844 40.3008 21.7025 40.8656 21.911 41.449C22.1512 42.0882 22.422 42.7195 22.6679 43.3573C23.0346 44.2955 23.3002 45.2572 23.5542 46.219C23.7 46.779 23.8358 47.3407 23.969 47.9027C24.0196 48.1315 23.9041 48.3526 23.8699 48.5771C23.8474 48.693 23.8706 48.8097 23.8836 48.9257C23.9463 49.4357 24.0369 49.9433 24.1243 50.4508C24.1969 50.8603 24.269 51.2716 24.263 51.6864C24.2659 52.7377 23.8989 53.7736 23.3063 54.7025C23.1015 55.0305 22.8526 55.3379 22.622 55.6536C21.8296 55.3706 21.0463 55.0683 20.2291 54.8344C19.3561 54.5822 18.4309 54.4293 17.5012 54.4586C17.1702 56.1463 17.3207 57.8891 17.8886 59.5326C18.0023 59.8647 18.132 60.1934 18.2756 60.5177C18.4103 60.826 18.5792 61.1267 18.6531 61.4504C18.7116 61.6915 18.7127 61.9517 18.5846 62.1791C18.4399 62.4413 18.1619 62.6336 17.8762 62.7927C17.596 62.9425 17.3041 63.0941 16.9693 63.1451C16.594 63.2091 16.1809 63.1423 15.8838 62.9404C15.5672 62.7307 15.4034 62.4002 15.3764 62.0744C15.2321 60.0792 15.142 58.0816 15.0204 56.0854C14.9991 55.8353 14.9548 55.5873 14.9202 55.3388C14.8157 55.3366 14.7109 55.3346 14.6067 55.3316C14.5768 55.6164 14.5181 55.8992 14.5028 56.1852C14.4878 56.3688 14.5122 56.5526 14.5199 56.7362C14.6574 58.9057 14.8152 61.0743 14.9628 63.2436C14.977 63.4908 14.9687 63.7387 14.9637 63.9863C14.5143 63.9751 14.0646 63.9914 13.6151 63.9951H12.9348C12.1784 63.9945 11.4332 63.8687 10.7028 63.7196C10.65 63.7076 10.5559 63.6878 10.5795 63.6284C10.6376 63.5402 10.7541 63.4932 10.8541 63.4424C11.0154 63.3619 11.1995 63.3156 11.353 63.2245C11.5575 63.1153 11.764 63.0083 11.9788 62.9134C12.2341 62.8101 12.473 62.6545 12.5815 62.4337C12.664 62.2745 12.6883 62.1004 12.695 61.9294C12.742 61.076 12.6247 60.2219 12.4272 59.3847C12.2312 58.5534 11.9584 57.7359 11.695 56.9176C11.0181 54.8348 10.4837 52.7242 9.89449 50.6245C9.86056 50.506 9.81181 50.38 9.86619 50.2604C10.0779 49.7009 10.0242 49.0965 9.82349 48.5406C9.63471 48.0007 9.34302 47.4903 9.11473 46.9617C8.89831 46.4478 8.73674 45.9197 8.57762 45.3926C8.36392 44.6671 8.18523 43.9353 8.01489 43.2025C7.86364 42.532 7.69959 41.8631 7.5659 41.1903C7.37445 40.2151 7.23442 39.2337 7.03377 38.2596C7.00815 38.0209 6.77019 37.8324 6.51444 37.7376C6.21487 37.6599 5.92295 37.5556 5.66833 37.4038C5.34989 37.2178 5.09302 36.9678 4.90246 36.6901C4.65549 36.3318 4.50786 35.9357 4.38759 35.5388V35.4516C4.42443 35.2049 4.47839 34.96 4.52128 34.7142C4.84375 32.9821 5.16758 31.2503 5.49142 29.5183C5.63614 28.7509 5.77457 27.9826 5.9312 27.2168C6.11797 26.2917 6.31257 25.3674 6.45011 24.4364C6.60271 23.3852 6.68919 22.328 6.73035 21.2703C6.75686 20.4535 6.7699 19.6356 6.71688 18.8192C6.65667 17.7981 6.53396 16.7801 6.48877 15.7583C6.46475 15.3739 6.52608 14.9808 6.71711 14.6262C6.98567 14.1137 7.53198 13.7175 8.16144 13.5109C8.57898 13.3794 9.02932 13.3487 9.46104 13.261C10.0316 10.8148 10.559 8.36119 11.1982 5.92578C11.2573 5.70412 11.3087 5.48025 11.4016 5.26573C11.6436 4.69199 12.0411 4.17367 12.4472 3.66887C12.5445 3.54139 12.6993 3.45251 12.8591 3.38228C13.1092 3.2731 13.3796 3.20031 13.6364 3.10265C13.8079 3.03807 14.0023 3.08913 14.1805 3.05071C14.584 2.96872 14.9953 2.90727 15.4113 2.88989V2.89024ZM9.61786 21.0106C9.61852 21.9894 9.61852 22.9683 9.61786 23.9471C9.75001 23.7593 9.83832 23.553 9.90706 23.3445C10.063 22.8413 10.0985 22.3117 9.99852 21.7986C9.93897 21.52 9.84259 21.2332 9.61786 21.0106ZM5.491 35.8648C5.44628 36.0667 5.54402 36.2719 5.69662 36.4292C5.7809 36.5128 5.87034 36.603 6.00089 36.6388C6.25189 36.7105 6.52383 36.6891 6.78182 36.7328C6.83687 36.4713 6.88116 36.2081 6.93621 35.9466C6.73082 36.0993 6.52946 36.2557 6.32003 36.4047C6.14608 36.0755 5.96002 35.7507 5.78428 35.4222C5.64674 35.5484 5.52333 35.6946 5.491 35.8648Z" fill="#41C3CA"/>
</svg>
