<svg width="25" height="25" viewBox="0 0 25 25" fill="none" xmlns="http://www.w3.org/2000/svg">
<g clip-path="url(#clip0)">
<path d="M12.4286 5.53759L12.3313 5.30695L12.3312 5.30679C11.3368 2.95279 9.2253 1.46453 6.80713 1.46453C3.51877 1.46453 0.954891 4.2083 0.625126 7.86867L0.619518 7.90643L0.617954 7.91696L0.61699 7.92757C0.618233 7.9139 0.579656 8.14937 0.587695 8.56059C0.595709 8.97049 0.648978 9.56071 0.825507 10.308C1.31739 12.3913 2.45497 14.284 4.10978 15.7834L12.4286 5.53759ZM12.4286 5.53759L12.5259 5.30695L12.526 5.30686C13.5085 2.97964 15.7293 1.46501 18.1934 1.46501C21.4827 1.46501 24.0455 4.21033 24.3816 7.91419M12.4286 5.53759L4.11001 15.7836L12.179 23.1064L12.4289 23.3332L12.6807 23.1085L20.8908 15.7836L20.8929 15.7817C22.545 14.2851 23.6831 12.3918 24.1745 10.3083M24.1745 10.3083C24.1745 10.3084 24.1745 10.3084 24.1745 10.3084L23.8096 10.2222L24.1745 10.3083ZM24.1745 10.3083C24.351 9.56111 24.4043 8.97079 24.4123 8.56046C24.4162 8.35536 24.4089 8.19547 24.4 8.08367C24.3927 7.99146 24.3837 7.92748 24.3816 7.91419M24.3816 7.91419C24.3811 7.91145 24.381 7.91086 24.3812 7.91262L24.0091 7.95911L24.3826 7.92571C24.3823 7.92187 24.3819 7.91803 24.3816 7.91419ZM24.5852 7.84304L24.5863 7.85573L24.5884 7.86831C24.6098 8.00262 24.7279 8.88659 24.3807 10.3562L24.3807 10.3563C23.8807 12.4753 22.7253 14.4063 21.0337 15.9399C21.0333 15.9402 21.0329 15.9405 21.0326 15.9409L12.4274 23.6176L3.96761 15.9405L3.9674 15.9403C2.27527 14.4071 1.11939 12.4753 0.619325 10.3563L0.619309 10.3562C0.272031 8.88587 0.390291 8.00217 0.411976 7.86881L0.414105 7.85572L0.415303 7.84251C0.765839 3.97923 3.4813 1.25294 6.80713 1.25294C8.99803 1.25294 10.9601 2.42456 12.1072 4.38753L12.4275 4.93549L12.7529 4.39063C13.9091 2.45515 15.9596 1.25342 18.1929 1.25342C21.5192 1.25342 24.2342 3.97969 24.5852 7.84304Z" fill="#F9F9F9" stroke="#050409" stroke-width="0.75"/>
</g>
<defs>
<clipPath id="clip0">
<rect width="25" height="25" fill="white"/>
</clipPath>
</defs>
</svg>
