<svg width="25" height="25" viewBox="0 0 25 25" fill="none" xmlns="http://www.w3.org/2000/svg">
<path d="M17.1253 16.6423L16.8661 16.9023L17.1206 17.167L24.1338 24.4606C24.1338 24.4606 24.1338 24.4606 24.1338 24.4606C24.1709 24.4993 24.1697 24.5608 24.1313 24.5979C24.1119 24.6163 24.0885 24.625 24.064 24.625C24.037 24.625 24.013 24.615 23.9948 24.5959L23.994 24.5952L16.9636 17.2834L16.7221 17.0323L16.4539 17.2547C14.8022 18.6243 12.6842 19.449 10.376 19.449C5.11734 19.449 0.838989 15.1707 0.838989 9.91202C0.838989 4.65336 5.11734 0.375 10.376 0.375C15.6347 0.375 19.913 4.65336 19.913 9.91202C19.913 12.536 18.8473 14.9153 17.1253 16.6423ZM1.03299 9.91202C1.03299 15.0643 5.22375 19.255 10.376 19.255C15.5278 19.255 19.719 15.0643 19.719 9.91202C19.719 4.75976 15.5283 0.569002 10.376 0.569002C5.22375 0.569002 1.03299 4.75976 1.03299 9.91202Z" fill="#F9F9F9" stroke="#050409" stroke-width="0.75"/>
</svg>
