<svg width="80" height="81" viewBox="0 0 80 81" fill="none" xmlns="http://www.w3.org/2000/svg">
<g clip-path="url(#clip0)">
<path d="M77.0568 9.86487C77.2392 10.1747 77.4136 10.5313 77.696 10.7561C79.8211 12.4474 82.3122 13.6259 84.9755 13.3641C85.2647 13.3357 86.5858 13.3553 85.954 13.8977C84.8797 14.82 85.004 14.7875 84.6197 14.9559C83.2287 15.5655 80.3296 16.3907 79.5153 16.4317C79.0616 16.4545 78.6726 16.6731 78.1443 16.7362C77.9887 16.7548 77.9538 16.8412 77.9212 16.894C77.5506 17.4965 77.7503 17.1952 77.7459 19.2811C77.7458 19.3295 77.8951 22.4342 78.1784 23.8647C78.3354 24.6571 77.9977 26.6271 78.1929 26.8087C78.4259 27.0256 78.4738 27.1835 78.8593 27.3114C81.344 28.1358 88.5125 32.3826 89.2291 33.1715C89.3941 33.3532 89.3817 33.6271 89.2455 33.8336C87.9875 35.741 87.1703 35.4052 85.6905 38.1591C84.7142 39.976 83.6812 40.062 83.684 41.21C83.686 42.0558 83.6014 41.8646 83.4622 42.2451C83.2878 42.7216 83.0522 43.1732 82.8978 43.6582C82.7223 44.2092 81.9169 44.3965 81.3471 44.3243C79.1359 44.0441 79.5455 44.4596 78.931 45.2876C78.0307 46.5006 76.7959 47.8688 75.502 48.6505C73.9096 49.6125 73.3192 49.0029 72.9299 48.6743C72.8423 48.6003 72.7806 48.6262 72.66 48.6734C72.2743 48.8244 72.3238 48.709 72.3634 49.1387C72.6445 52.1833 72.6514 49.7286 72.5869 53.2458C72.5869 59.5675 70.7629 65.2692 72.2621 69.1798C72.3729 69.469 72.4891 69.8359 72.6982 70.0682C72.9135 70.3072 73.0321 70.3095 73.0493 70.6712C72.9287 70.8435 72.8497 71.0536 72.6896 71.1867C72.4626 71.3754 71.8108 71.0813 71.6284 70.944C71.296 70.6936 71.0177 70.7662 70.7678 70.6232C69.6055 69.958 68.7955 70.8491 68.5809 70.9431C68.4885 70.9836 68.2079 71.1443 68.2079 71.1443C67.9756 71.2032 67.7508 71.2781 67.55 71.4133C67.4678 71.4686 66.7463 71.244 66.7102 71.1403C66.6155 70.8683 66.272 70.4978 66.4876 70.2652C66.6611 70.0782 66.5941 70.0483 66.8212 69.8993C67.7076 69.3178 67.6266 68.2486 67.8052 67.314C67.9794 66.4025 68.2793 65.5319 68.3599 64.5958C68.4756 63.2511 68.047 59.4078 67.3109 57.3926C66.9149 56.3087 67.2265 53.6021 67.3742 52.1244C68.0452 45.4107 67.6391 45.7159 66.7442 42.5396C63.1544 29.7998 63.2902 30.1821 66.1658 24.8975C66.417 24.4358 67.0287 23.6065 67.0922 21.8789C67.1218 21.0745 67.052 20.237 66.7917 19.4825C65.7966 16.5978 65.9547 16.7159 65.7608 16.6521C65.2933 16.4981 64.8771 16.2348 64.433 16.0313C64.3538 15.995 64.287 15.895 64.1972 15.9277C64.1213 15.9553 64.1083 16.0629 64.0605 16.131C63.4185 17.0471 63.8999 16.144 62.9976 18.0875C62.0525 20.1232 61.9527 20.2909 61.5534 20.448C61.214 20.5816 60.6471 21.0326 60.315 20.6963C59.7004 20.0741 58.2167 13.4671 58.0836 12.5855C57.9006 11.3748 57.9453 10.8126 57.837 10.0146C57.3955 6.76127 58.3297 7.20176 58.4431 6.41448C58.4728 6.20799 58.4457 5.99827 58.4376 5.7898C58.1799 -0.887653 76.1831 -7.49945 79.0868 -5.324C79.9952 -4.64351 81.374 -0.891709 74.4137 4.03631C73.5273 4.66384 71.6056 5.71086 71.5588 6.08831C71.4948 6.60475 71.4206 7.00575 71.8457 8.02077C72.0761 8.571 72.0954 9.16995 73.1421 9.26554C75.8045 9.50862 76.4493 8.83262 77.0565 9.86425L77.0568 9.86487ZM69.1367 8.64028C69.1277 6.98856 68.4288 7.34158 67.913 7.33656C67.7844 7.3353 62.8889 8.55439 61.7414 8.37682C60.0831 8.12022 60.2816 7.98301 60.3768 7.84479C60.571 7.56275 60.5679 7.54845 60.322 7.47222C60.268 7.45552 60.2314 7.46735 60.2138 7.5177C60.1565 7.68161 60.0499 7.82446 60.0105 7.99581C59.8165 8.84204 59.2738 9.19954 59.0844 9.73288C59.0085 9.94681 58.9377 10.5377 58.9841 10.7214C59.0961 11.1645 58.9666 11.2365 59.0913 11.5373C59.3872 12.2513 59.5034 13.5645 60.0084 14.8993C60.1717 15.3307 61.2319 17.7162 61.829 16.6437C61.8858 16.5419 61.9305 16.4359 61.9727 16.3285C62.2573 15.6035 62.5035 15.7056 62.5049 15.2002C62.5058 14.848 62.2102 14.9272 62.1451 14.644C61.929 13.7029 62.5331 13.7628 63.0697 12.2722C63.3042 11.621 63.4402 11.8252 63.6624 11.4371C64.193 10.5105 64.5127 10.3164 64.8246 10.2368C67.2724 9.6118 69.2273 9.9204 69.1367 8.64028ZM75.6221 17.4338C75.5365 17.0707 75.0556 17.1127 74.951 17.4981C74.8027 18.0447 73.8395 20.491 73.7918 21.5265C73.6893 23.7524 74.8472 24.249 74.9603 24.3705C75.0775 24.4962 75.5121 24.8936 75.8875 25.05C76.0984 25.1379 75.831 24.8169 75.9552 22.9537C76.0504 21.5253 75.965 18.888 75.6221 17.4339V17.4338Z" fill="#41C3CA"/>
</g>
<defs>
<clipPath id="clip0">
<rect width="80" height="81" fill="white"/>
</clipPath>
</defs>
</svg>
